<?xml version="1.0" encoding="UTF-8" standalone="no"?>
<!-- Created with Inkscape (http://www.inkscape.org/) -->

<svg
        xmlns:inkscape="http://www.inkscape.org/namespaces/inkscape"
        xmlns:sodipodi="http://sodipodi.sourceforge.net/DTD/sodipodi-0.dtd"
        width="200"
        height="200"
        viewBox="0 0 200 200"
        version="1.1"
        id="svg5"
        xml:space="preserve"
        sodipodi:docname="Zeichnung_hell.svg"
        inkscape:version="1.2.2 (b0a8486541, 2022-12-01)"
        xmlns="http://www.w3.org/2000/svg"><sodipodi:namedview
     id="namedview7"
     pagecolor="#ffffff"
     bordercolor="#000000"
     borderopacity="0.25"
     inkscape:showpageshadow="2"
     inkscape:pageopacity="0.0"
     inkscape:pagecheckerboard="0"
     inkscape:deskcolor="#d1d1d1"
     inkscape:document-units="px"
     showgrid="false"
     inkscape:zoom="4.6611111"
     inkscape:cx="87.854589"
     inkscape:cy="91.609058"
     inkscape:window-width="1920"
     inkscape:window-height="1011"
     inkscape:window-x="0"
     inkscape:window-y="32"
     inkscape:window-maximized="1"
     inkscape:current-layer="layer1" />
    <defs
            id="defs2"/>
    <g
            inkscape:label="Ebene 1"
            inkscape:groupmode="layer"
            id="layer1"><path
       style="fill:#ffffff;stroke:none;stroke-width:0.52796"
       d="m 41.558683,96.223274 c 0,7.706096 1.924307,11.905496 5.91468,18.478596 1.148207,1.89115 2.496828,5.17189 4.699529,6.00923 2.194095,0.83418 5.608939,-0.34634 7.864383,-0.661 5.795415,-0.80725 11.635706,-1.18738 17.422673,-1.95662 20.170704,-2.68045 39.228472,-4.86779 58.603532,-11.65788 5.4079,-1.89485 15.59488,-3.83352 19.61741,-8.004399 3.9296,-4.074793 2.69048,-8.882395 -2.19473,-10.474194 -6.0066,-1.956619 -14.8135,-3.569008 -21.11839,-2.000439 -5.18774,1.290861 -10.14845,4.108055 -15.31084,5.662896 -11.19116,3.370496 -22.195427,4.374147 -33.789424,2.714241 -7.884552,-1.129305 -19.671254,-5.558888 -27.451269,-4.054203 -3.238453,0.626161 -2.644762,3.93858 -4.914356,5.401029 -2.209195,1.423907 -6.794684,0.542743 -9.343198,0.542743 m 92.392967,-8.975317 v 0.52796 C 114.18958,97.019965 95.617013,98.444928 74.29219,96.312499 67.978846,95.681059 60.833439,95.42975 54.757677,93.583475 v -1.05592 c 4.906859,-1.449778 10.892339,0.592899 15.838794,1.360024 9.465263,1.467729 18.916271,2.649303 28.509829,2.630296 12.44137,-0.02481 23.0238,-8.060362 34.84535,-9.269918 m 11.08715,0.52796 c -2.9307,4.296009 -13.61397,6.787979 -18.47859,8.445773 -15.70892,5.35246 -29.965415,6.86612 -46.460463,6.86506 -8.359187,-5.3e-4 -16.402655,0.58023 -21.646351,-6.863476 14.576442,0.120902 29.134405,4.516696 43.820664,2.413832 14.64455,-2.097057 28.30128,-10.901314 42.76474,-10.861189 m 3.69572,1.05592 c 0.71011,3.057415 -1.84892,3.514628 -4.22368,4.636014 -4.67244,2.206872 -9.43464,4.1561 -14.25491,6.022966 -21.43623,8.303223 -42.763162,9.403493 -65.467017,9.403493 l -0.527959,-4.75164 c 12.582337,0 25.507321,1.71745 38.013106,-0.23177 16.55893,-2.58067 30.66074,-10.562367 46.46046,-15.079063 m 5.2796,1.583879 v 1.055919 l -8.44736,3.695719 v -0.52796 l 5.80756,-4.751638 2.6398,0.52796 m 1.58388,2.639799 c -0.68582,4.552069 -3.73479,5.871969 -7.9194,6.863477 0.056,-4.719432 3.74535,-5.871969 7.9194,-6.863477 m -11.08716,2.111839 -0.52796,0.52796 0.52796,-0.52796 m -89.753163,0.52796 c 4.684588,3.203132 7.20454,5.962776 7.919397,11.615116 -3.481367,-1.62453 -9.647831,-7.366096 -7.919397,-11.615116 m 88.697243,0 -0.52796,0.52796 0.52796,-0.52796 m -1.05592,0.52796 v 0.527959 l -2.11184,0.52796 2.11184,-1.055919 m -10.03123,4.223676 v 0.52796 c -9.23402,2.52048 -17.96859,6.33605 -27.45391,8.12477 -9.479521,1.78768 -19.009195,1.46404 -28.509831,2.5849 -5.248449,0.61929 -10.567643,0.59184 -15.838794,0.95296 -2.215847,0.15153 -5.074749,1.11822 -7.217738,0.16209 -3.686163,-1.64513 -8.052601,-11.26508 -9.149015,-14.992477 5.87767,1.729068 5.716907,10.936157 12.143075,12.529017 6.359803,1.57596 15.636057,0.32575 22.174311,-0.29619 8.641118,-0.82256 17.27062,-0.19112 25.870032,-1.91069 9.39927,-1.87953 18.63064,-6.28166 27.98187,-7.68234 M 52.117878,97.807153 v 1.583879 h -2.111839 v 0.52796 c 4.070042,1.016848 6.071538,2.861018 8.447357,6.335518 h -3.167759 v 0.52796 h 4.223678 l 0.52796,2.11184 C 53.760889,109.54687 49.716612,103.45104 48.42216,97.807153 h 3.695718 m 86.585402,0 -0.52796,0.52796 0.52796,-0.52796 m 5.80756,0 c 0.74654,2.810857 -0.53113,3.959167 -3.16776,4.751637 0.0322,-2.704209 0.47675,-3.92538 3.16776,-4.751637 m -10.03123,1.583879 -0.52796,0.52796 0.52796,-0.52796 m -1.05592,0.52796 -0.52796,0.527958 0.52796,-0.527958 m 4.75163,0.527958 c 0.74073,2.78393 -0.4741,3.79075 -3.16775,4.22368 0.0829,-2.53157 0.67684,-3.55159 3.16775,-4.22368 m -93.976838,1.58388 7.391437,13.72696 c -3.254028,-1.68631 -8.829969,-10.00273 -7.391437,-13.72696 m 87.641328,0.52796 c 0.81781,3.08012 -0.88803,4.07427 -3.69572,4.75164 0.094,-2.85996 1.10449,-3.71103 3.69572,-4.75164 m -6.33552,2.6398 c -0.094,2.82089 -1.08073,3.44863 -3.69572,4.22368 -0.812,-3.05214 0.83629,-3.9634 3.69572,-4.22368 m -6.86348,2.11184 v 3.16776 l -4.22368,0.52796 c 0.21647,-2.78921 1.56118,-3.45339 4.22368,-3.69572 m -7.9194,2.11184 c -0.23441,3.01359 -1.97456,3.46658 -4.75163,3.69572 v -3.16776 l 4.75163,-0.52796 m -8.97531,1.58388 v 3.16776 l -3.69572,0.52796 -0.52796,-3.16776 4.22368,-0.52796 m -8.447358,1.05592 v 3.16776 l -4.751638,0.52796 v -3.16776 l 4.751638,-0.52796 m -14.254914,4.22368 v -3.16776 c 5.096923,0.0179 5.011394,3.10862 0,3.16776 m -5.807558,-2.6398 v 3.16776 l -20.062472,2.11183 c 0.216463,-6.60583 14.94707,-5.27959 20.062472,-5.27959 z"
       id="path209" /></g></svg>
